HIERARCHY
ROOT Hips
{
	OFFSET	0.00	0.00	0.00
	CHANNELS 6 Xposition Yposition Zposition Zrotation Xrotation Yrotation
	JOINT LeftHip
	{
		OFFSET	 3.430000	 0.000000	 0.000000
		CHANNELS 3 Zrotation Xrotation Yrotation
		JOINT LeftKnee
		{
			OFFSET	 0.000000	-18.469999	 0.000000
			CHANNELS 3 Zrotation Xrotation Yrotation
			JOINT LeftAnkle
			{
				OFFSET	 0.000000	-17.950001	 0.000000
				CHANNELS 3 Zrotation Xrotation Yrotation
				End Site 
				{
					OFFSET	 0.000000	-3.119996	 0.000000
				}
			}
		}
	}
	JOINT RightHip
	{
		OFFSET	-3.430000	 0.000000	 0.000000
		CHANNELS 3 Zrotation Xrotation Yrotation
		JOINT RightKnee
		{
			OFFSET	 0.000000	-18.809999	 0.000000
			CHANNELS 3 Zrotation Xrotation Yrotation
			JOINT RightAnkle
			{
				OFFSET	 0.000000	-17.570000	 0.000000
				CHANNELS 3 Zrotation Xrotation Yrotation
				End Site 
				{
					OFFSET	 0.000000	-3.250000	 0.000000
				}
			}
		}
	}
	JOINT Chest
	{
		OFFSET	 0.000000	 4.570000	 0.000000
		CHANNELS 3 Zrotation Xrotation Yrotation
		JOINT LeftCollar
		{
			OFFSET	 1.060000	 15.330000	 1.760000
			CHANNELS 3 Zrotation Xrotation Yrotation
			JOINT LeftShoulder
			{
				OFFSET	 5.810000	 0.000000	 0.000000
				CHANNELS 3 Zrotation Xrotation Yrotation
				JOINT LeftElbow
				{
					OFFSET	 0.000000	-12.080000	 0.000000
					CHANNELS 3 Zrotation Xrotation Yrotation
					JOINT LeftWrist
					{
						OFFSET	 0.000000	-9.820000	 0.000000
						CHANNELS 3 Zrotation Xrotation Yrotation
						End Site 
						{
							OFFSET	 0.000000	-7.369996	 0.000000
						}
					}
				}
			}
		}
		JOINT RightCollar
		{
			OFFSET	-1.060000	 15.330000	 1.760000
			CHANNELS 3 Zrotation Xrotation Yrotation
			JOINT RightShoulder
			{
				OFFSET	-6.060000	 0.000000	 0.000000
				CHANNELS 3 Zrotation Xrotation Yrotation
				JOINT RightElbow
				{
					OFFSET	 0.000000	-11.900000	 0.000000
					CHANNELS 3 Zrotation Xrotation Yrotation
					JOINT RightWrist
					{
						OFFSET	 0.000000	-9.520000	 0.000000
						CHANNELS 3 Zrotation Xrotation Yrotation
						End Site 
						{
							OFFSET	 0.000000	-7.140012	 0.000000
						}
					}
				}
			}
		}
		JOINT Neck
		{
			OFFSET	 0.000000	 17.620001	 0.000000
			CHANNELS 3 Zrotation Xrotation Yrotation
			JOINT Head
			{
				OFFSET	 0.000000	 5.190000	 0.000000
				CHANNELS 3 Zrotation Xrotation Yrotation
				End Site 
				{
					OFFSET	 0.000000	 4.140008	 0.000000
				}
			}
		}
	}
}

MOTION
Frames: 14
Frame Time: 0.033333
-55.9512 2.2764 -27.9325 5.19546 5.59865 116.759 5.36549 15.028 -1.67987 -9.28357 10.4189 7.92926 10.2616 -14.2132 6.93829 -12.7212 -14.9479 -18.9172 3.24724 16.3969 -1.40235 -0.993679 7.12713 13.1059 0.415471 15.7329 7.24635 0 0 0 10.5232 -2.69266 35.504 -28.3252 -8.7515 -10.7965 25.3233 -12.7907 -35.2339 0 0 0 -8.16441 -10.9119 -6.59781 9.90505 -8.47859 0.0668304 -18.8503 -23.3702 30.658 0 0 0 2.91685 7.73254 -13.2451 
-55.9547 2.2993 -27.9571 5.04022 5.56991 116.66 5.33172 14.7995 -1.51207 -9.31203 10.4179 7.96453 10.2565 -14.1517 6.83054 -12.9307 -14.9447 -19.0315 3.41129 17.2677 -1.45604 -0.293201 5.58287 12.7013 0.598053 15.6216 6.87844 0 0 0 10.8862 -2.89357 35.7071 -28.5123 -8.73772 -10.828 24.9232 -12.8843 -35.7473 0 0 0 -8.27304 -10.9918 -6.82071 9.89592 -8.54543 0.226919 -19.0697 -23.3667 29.8654 0 0 0 2.77966 7.41932 -13.0225 
-55.9717 2.3204 -27.9618 4.77394 5.52042 116.565 5.25448 14.497 -1.29401 -9.34101 10.4084 7.98289 10.2514 -14.1019 6.71278 -13.1235 -15.0211 -19.04 3.59456 17.8824 -1.49893 0.168115 4.47611 12.3272 0.696066 15.4117 6.60864 0 0 0 11.1053 -3.11485 35.6711 -28.4727 -8.79082 -10.5934 24.6641 -12.9485 -36.086 0 0 0 -8.35614 -11.0708 -7.09601 9.90659 -8.59962 0.37178 -19.3832 -23.4386 29.0186 0 0 0 2.65197 7.05399 -12.8256 
-55.9738 2.3505 -27.9651 4.46999 5.45322 116.501 5.22736 14.1562 -0.981096 -9.36783 10.3294 7.98076 10.1964 -13.9908 6.46899 -13.3313 -15.2457 -18.9179 3.78783 18.494 -1.49661 0.568444 3.8386 11.6365 0.873693 15.2188 6.26681 0 0 0 11.2158 -3.29859 35.6571 -28.2622 -8.7881 -10.3914 24.6161 -13.0283 -36.2696 0 0 0 -8.50569 -11.1717 -7.56354 9.92461 -8.70711 0.544374 -19.6716 -23.6258 28.301 0 0 0 2.44712 6.60817 -12.6249 
-55.9863 2.3756 -27.9676 4.09688 5.35777 116.406 5.19631 13.714 -0.533201 -9.39092 10.2317 7.90591 10.1372 -13.8243 6.20667 -13.7199 -15.6536 -18.8014 4.06016 19.4111 -1.47697 1.08045 2.90041 10.8995 1.17468 14.9019 5.69556 0 0 0 11.5421 -3.60928 35.3959 -27.9301 -8.92461 -10.09 24.601 -12.9766 -36.4519 0 0 0 -8.72396 -11.3477 -8.46261 9.9877 -8.91514 0.846528 -20.0264 -23.817 27.4911 0 0 0 2.13172 5.99567 -12.3317 
-55.9863 2.4058 -27.9777 3.70944 5.23416 116.314 5.19304 13.2351 -0.11896 -9.41697 10.1526 7.86501 10.0705 -13.6928 5.92168 -14.1326 -16.1832 -18.6735 4.25868 20.1776 -1.42636 1.83533 1.91678 10.3086 1.48704 14.6323 5.13311 0 0 0 11.8294 -3.84847 35.067 -27.1344 -8.63065 -9.57867 24.9514 -13.2596 -36.7575 0 0 0 -8.96974 -11.4634 -9.40833 10.0642 -9.18089 1.1786 -20.2457 -23.9886 26.7352 0 0 0 1.82771 5.29687 -12.0546 
-55.9462 2.4284 -28.0179 3.3067 5.05671 116.117 5.22684 12.7251 0.200935 -9.44396 10.0639 7.85511 10.005 -13.5522 5.81062 -14.6586 -17.083 -18.5011 4.41248 20.8546 -1.33315 2.95592 0.843737 9.71076 1.89702 14.3644 4.5522 0 0 0 12.0513 -3.96936 34.4474 -26.1891 -8.28757 -8.87603 25.4683 -13.4462 -37.0159 0 0 0 -9.263 -11.6132 -10.2715 10.0946 -9.4348 1.48286 -20.4199 -24.1656 26.0513 0 0 0 1.45644 4.52428 -11.702 
-55.8959 2.4535 -28.0656 2.89726 4.88526 115.892 5.25581 12.26 0.442594 -9.46597 9.95574 7.87502 9.93775 -13.4512 5.76208 -15.1817 -18.021 -18.3767 4.54599 21.4717 -1.23191 4.05369 -0.0452 9.2841 2.2792 14.1107 3.99152 0 0 0 12.1682 -3.93302 33.9026 -25.0234 -7.88131 -8.3164 26.149 -13.575 -36.9551 0 0 0 -9.53958 -11.7481 -10.9803 10.1365 -9.66403 1.81699 -20.6909 -24.3299 25.2912 0 0 0 1.11674 3.75513 -11.2967 
-55.8055 2.4635 -28.1108 2.52559 4.7897 115.742 5.33117 12.0482 0.271787 -9.51407 9.80235 7.88188 9.80696 -13.4561 6.04257 -15.6537 -19.0306 -18.4723 4.52492 21.4975 -1.01534 5.4194 0.314475 9.23004 2.59978 13.8824 3.4505 0 0 0 12.1284 -3.69729 32.9911 -23.7855 -7.60834 -7.5106 26.9681 -13.6514 -36.8097 0 0 0 -9.78826 -11.8337 -11.4983 10.1491 -9.87512 2.04613 -20.8576 -24.5001 25.0522 0 0 0 0.795359 3.17051 -10.9148 
-55.685 2.4033 -28.1811 2.34147 4.69521 115.604 5.43628 12.143 0.191689 -9.50108 9.69933 7.8362 9.64989 -13.6442 6.27527 -15.9953 -19.7969 -18.9701 4.38082 21.4031 -0.741542 6.476 0.956115 9.84408 2.99225 13.7549 2.88305 0 0 0 12.0687 -3.31943 32.0448 -22.4201 -7.18424 -6.97231 27.5854 -13.6492 -36.2296 0 0 0 -10.0019 -11.8434 -11.84 10.1329 -9.98372 2.2242 -20.956 -24.6478 25.0654 0 0 0 0.463059 2.68271 -10.5422 
-55.4841 2.2777 -28.259 2.32157 4.57271 115.523 5.81119 13.0015 0.282749 -9.44064 9.74773 7.66501 9.254 -14.5505 6.31193 -15.6516 -20.0155 -19.1595 4.05629 20.7417 -0.910518 6.48842 1.90084 11.1383 3.28976 13.5628 2.49193 0 0 0 12.059 -2.75024 30.6171 -20.9894 -6.82887 -6.34036 27.9607 -13.5832 -35.5342 0 0 0 -10.0021 -11.6737 -12.0494 10.0483 -9.97586 2.29339 -21.1064 -24.6726 25.1542 0 0 0 0.315771 2.41443 -10.3605 
-55.2305 2.1345 -28.3569 2.39528 4.35968 115.477 6.39422 14.304 0.431786 -9.32021 9.83235 7.61926 8.67443 -15.8782 6.03944 -14.7864 -19.983 -18.6481 3.73911 19.9362 -0.685693 6.46545 2.60369 11.2359 3.69212 13.3032 2.07983 0 0 0 11.9498 -2.10981 29.3139 -19.6236 -6.44453 -5.96392 27.9332 -13.5349 -34.9023 0 0 0 -9.96408 -11.3737 -11.9854 9.94713 -9.85777 2.29043 -21.2974 -24.6106 24.9448 0 0 0 0.170391 2.29597 -10.1588 
-54.9342 1.9989 -28.4724 2.52304 4.08942 115.373 7.32515 16.2524 0.819449 -9.26455 9.61128 7.28865 7.7448 -16.831 5.74779 -13.6468 -19.6274 -17.9561 3.52444 19.1148 -0.666129 6.17325 3.25855 11.246 4.09438 12.9232 1.83274 0 0 0 11.6671 -1.51568 28.144 -18.4682 -6.2385 -5.51687 27.8709 -13.1999 -34.0063 0 0 0 -9.92764 -11.0186 -11.6705 9.79176 -9.65379 2.15625 -21.4509 -24.4849 24.6818 0 0 0 0.0190806 2.29539 -10.0328 
-54.6554 1.8784 -28.5678 2.6625 3.82468 115.448 8.48013 18.3761 1.47714 -9.2899 9.6421 6.98851 6.46688 -16.9123 5.25988 -12.3315 -18.7613 -17.4749 3.33263 18.3374 -0.677716 5.46129 3.9063 11.3735 4.48708 12.5762 1.55666 0 0 0 11.0474 -1.35349 27.4552 -17.0844 -5.88199 -5.18678 27.6755 -12.9171 -32.8299 0 0 0 -9.88525 -10.6881 -11.2433 9.65338 -9.41955 2.03799 -21.5006 -24.2571 24.5755 0 0 0 -0.111192 2.21497 -10.0565 
